<svg width="16" height="16" viewBox="0 0 16 16" fill="none" xmlns="http://www.w3.org/2000/svg">
<mask id="mask0_450_383" style="mask-type:alpha" maskUnits="userSpaceOnUse" x="0" y="0" width="16" height="16">
<rect width="16" height="16" fill="#D9D9D9"/>
</mask>
<g mask="url(#mask0_450_383)">
<path d="M11.8198 13.6667H4.80703V5.6667L9.2301 1.26929L9.79418 1.83337C9.86341 1.9026 9.92088 1.99427 9.96662 2.10837C10.0123 2.22247 10.0352 2.32995 10.0352 2.4308V2.60004L9.32752 5.6667H13.7942C14.1113 5.6667 14.3914 5.78829 14.6346 6.03145C14.8777 6.27461 14.9993 6.55474 14.9993 6.87184V7.94874C14.9993 8.01797 14.9903 8.09275 14.9724 8.17309C14.9544 8.25343 14.9344 8.32822 14.9121 8.39745L13.0019 12.9051C12.9062 13.1188 12.7459 13.2991 12.5211 13.4462C12.2963 13.5932 12.0626 13.6667 11.8198 13.6667ZM5.80702 12.6667H11.8198C11.8668 12.6667 11.9149 12.6539 11.9641 12.6282C12.0132 12.6026 12.0506 12.5598 12.0763 12.5L13.9993 8.00002V6.87184C13.9993 6.812 13.9801 6.76285 13.9416 6.72439C13.9032 6.68592 13.854 6.66669 13.7942 6.66669H8.06343L8.89933 3.01284L5.80702 6.09234V12.6667ZM4.80703 5.6667V6.66669H2.666V12.6667H4.80703V13.6667H1.66602V5.6667H4.80703Z" fill="#817F8B"/>
</g>
</svg>
