<svg width="16" height="16" viewBox="0 0 16 16" fill="none" xmlns="http://www.w3.org/2000/svg">
<mask id="mask0_450_375" style="mask-type:alpha" maskUnits="userSpaceOnUse" x="0" y="0" width="16" height="16">
<rect width="16" height="16" fill="#D9D9D9"/>
</mask>
<g mask="url(#mask0_450_375)">
<path d="M5.33267 7.2564C5.49591 7.2564 5.63501 7.19893 5.74997 7.08397C5.86492 6.96902 5.9224 6.82992 5.9224 6.66667C5.9224 6.50343 5.86492 6.36433 5.74997 6.24937C5.63501 6.13441 5.49591 6.07694 5.33267 6.07694C5.16942 6.07694 5.03032 6.13441 4.91537 6.24937C4.80041 6.36433 4.74293 6.50343 4.74293 6.66667C4.74293 6.82992 4.80041 6.96902 4.91537 7.08397C5.03032 7.19893 5.16942 7.2564 5.33267 7.2564ZM7.99933 7.2564C8.16258 7.2564 8.30168 7.19893 8.41663 7.08397C8.53159 6.96902 8.58907 6.82992 8.58907 6.66667C8.58907 6.50343 8.53159 6.36433 8.41663 6.24937C8.30168 6.13441 8.16258 6.07694 7.99933 6.07694C7.83609 6.07694 7.69699 6.13441 7.58203 6.24937C7.46708 6.36433 7.4096 6.50343 7.4096 6.66667C7.4096 6.82992 7.46708 6.96902 7.58203 7.08397C7.69699 7.19893 7.83609 7.2564 7.99933 7.2564ZM10.666 7.2564C10.8292 7.2564 10.9683 7.19893 11.0833 7.08397C11.1983 6.96902 11.2557 6.82992 11.2557 6.66667C11.2557 6.50343 11.1983 6.36433 11.0833 6.24937C10.9683 6.13441 10.8292 6.07694 10.666 6.07694C10.5028 6.07694 10.3637 6.13441 10.2487 6.24937C10.1337 6.36433 10.0763 6.50343 10.0763 6.66667C10.0763 6.82992 10.1337 6.96902 10.2487 7.08397C10.3637 7.19893 10.5028 7.2564 10.666 7.2564ZM1.66602 14.0256V2.87182C1.66602 2.53507 1.78268 2.25002 2.01602 2.01669C2.24935 1.78335 2.53439 1.66669 2.87115 1.66669H13.1275C13.4643 1.66669 13.7493 1.78335 13.9826 2.01669C14.216 2.25002 14.3327 2.53507 14.3327 2.87182V10.4615C14.3327 10.7983 14.216 11.0833 13.9826 11.3167C13.7493 11.55 13.4643 11.6667 13.1275 11.6667H4.02498L1.66602 14.0256ZM3.59935 10.6667H13.1275C13.1788 10.6667 13.2258 10.6453 13.2686 10.6026C13.3113 10.5598 13.3327 10.5128 13.3327 10.4615V2.87182C13.3327 2.82053 13.3113 2.77352 13.2686 2.73077C13.2258 2.68804 13.1788 2.66667 13.1275 2.66667H2.87115C2.81986 2.66667 2.77284 2.68804 2.7301 2.73077C2.68737 2.77352 2.666 2.82053 2.666 2.87182V11.5898L3.59935 10.6667Z" fill="#817F8B"/>
</g>
</svg>
